<?xml version="1.0" encoding="utf-8"?>
<svg xmlns="http://www.w3.org/2000/svg"
	xmlns:xlink="http://www.w3.org/1999/xlink"
	width="13px" height="11px">
<path fill="rgb(255,255,255)" fill-rule="evenodd" d="M 8.48 0.26C 9.47 0.24 9.99 0.6 10.49 1.05 10.92 1.02 11.47 0.78 11.8 0.61 11.9 0.56 12.01 0.5 12.12 0.44 11.93 0.94 11.68 1.33 11.29 1.63 11.2 1.7 11.12 1.79 11.01 1.83 11.01 1.83 11.01 1.83 11.01 1.84 11.56 1.83 12.02 1.58 12.45 1.45 12.45 1.45 12.45 1.45 12.45 1.45 12.22 1.81 11.92 2.18 11.59 2.44 11.45 2.55 11.32 2.65 11.19 2.76 11.2 3.34 11.18 3.9 11.07 4.38 10.43 7.23 8.75 9.17 6.08 10 5.12 10.29 3.57 10.42 2.47 10.14 1.93 10.01 1.44 9.86 0.98 9.66 0.72 9.55 0.48 9.42 0.25 9.29 0.18 9.24 0.11 9.2 0.03 9.15 0.28 9.16 0.57 9.23 0.85 9.18 1.1 9.14 1.34 9.15 1.57 9.1 2.15 8.98 2.66 8.81 3.1 8.55 3.32 8.43 3.64 8.28 3.79 8.1 3.51 8.11 3.25 8.04 3.03 7.97 2.21 7.68 1.73 7.14 1.42 6.34 1.67 6.37 2.39 6.43 2.55 6.29 2.24 6.28 1.94 6.09 1.72 5.96 1.06 5.55 0.52 4.85 0.52 3.79 0.61 3.83 0.7 3.87 0.78 3.91 0.95 3.98 1.12 4.02 1.32 4.06 1.4 4.08 1.57 4.12 1.67 4.09 1.66 4.09 1.66 4.09 1.65 4.09 1.53 3.94 1.32 3.84 1.19 3.68 0.76 3.15 0.36 2.34 0.62 1.38 0.68 1.13 0.78 0.92 0.89 0.72 0.89 0.72 0.9 0.72 0.9 0.72 0.95 0.83 1.06 0.9 1.13 0.99 1.35 1.26 1.62 1.5 1.89 1.71 2.82 2.44 3.66 2.88 5 3.21 5.35 3.3 5.74 3.36 6.15 3.36 6.03 3.03 6.07 2.49 6.16 2.17 6.39 1.36 6.88 0.78 7.6 0.47 7.78 0.39 7.97 0.34 8.17 0.29 8.27 0.28 8.38 0.27 8.48 0.26Z"/>
</svg>