<?xml version="1.0" encoding="utf-8"?>
<svg xmlns="http://www.w3.org/2000/svg"
	xmlns:xlink="http://www.w3.org/1999/xlink"
	width="28px" height="28px">
<path fill="rgb(255,55,55)" fill-rule="evenodd" d="M 26.38 28C 26.38 28 14 28 14 28 14 28 14 28 14 28 14 28 14 28 14 28 14 28 1.62 28 1.62 28 0.72 28-0 27.22-0 26.25-0 26.25-0 17.5-0 17.5-0 16.53 0.72 15.75 1.62 15.75 2.51 15.75 3.23 16.53 3.23 17.5 3.23 17.5 3.23 24.5 3.23 24.5 3.23 24.5 24.77 24.5 24.77 24.5 24.77 24.5 24.77 17.5 24.77 17.5 24.77 16.53 25.49 15.75 26.38 15.75 27.28 15.75 28 16.53 28 17.5 28 17.5 28 26.25 28 26.25 28 27.22 27.28 28 26.38 28ZM 20.05 12.25C 20.05 12.25 15.2 18.09 15.2 18.09 15.2 18.09 15.2 18.09 15.2 18.09 14.9 18.44 14.48 18.67 14 18.67 13.52 18.67 13.09 18.44 12.8 18.09 12.8 18.09 12.8 18.09 12.8 18.09 12.8 18.09 7.95 12.25 7.95 12.25 7.95 12.25 7.95 12.25 7.95 12.25 7.7 11.94 7.54 11.53 7.54 11.08 7.54 10.12 8.26 9.33 9.15 9.33 9.63 9.33 10.06 9.56 10.35 9.91 10.35 9.91 10.35 9.91 10.35 9.91 10.35 9.91 12.38 12.36 12.38 12.36 12.38 12.36 12.38 1.75 12.38 1.75 12.38 1.75 12.38 1.75 12.38 1.75 12.38 0.78 13.11-0 14-0 14.89-0 15.62 0.78 15.62 1.75 15.62 1.75 15.62 1.75 15.62 1.75 15.62 1.75 15.62 12.36 15.62 12.36 15.62 12.36 17.65 9.91 17.65 9.91 17.65 9.91 17.65 9.91 17.65 9.91 17.94 9.56 18.37 9.33 18.85 9.33 19.74 9.33 20.46 10.12 20.46 11.08 20.46 11.53 20.3 11.94 20.05 12.25 20.05 12.25 20.05 12.25 20.05 12.25Z"/>
</svg>