<?xml version="1.0" encoding="utf-8"?>
<svg xmlns="http://www.w3.org/2000/svg"
	xmlns:xlink="http://www.w3.org/1999/xlink"
	width="6px" height="13px">
<path fill="rgb(255,255,255)" fill-rule="evenodd" d="M 5.52 0.59C 5.52 1.25 5.52 2.43 5.52 2.43 5.52 2.43 4.2 2.3 3.86 2.82 3.68 3.1 3.79 3.93 3.77 4.53 4.35 4.53 4.95 4.53 5.53 4.53 5.38 5.23 5.27 5.71 5.17 6.31 4.67 6.31 3.76 6.31 3.76 6.31 3.76 6.31 3.76 12.04 3.76 12.04 3.76 12.04 2.11 12.04 1.33 12.04 1.33 10.27 1.33 8.21 1.33 6.33 0.96 6.33 0.68 6.33 0.3 6.33 0.3 5.67 0.3 5.19 0.3 4.53 0.67 4.53 0.96 4.53 1.32 4.53 1.37 3.22 1.39 1.91 2.03 1.25 2.75 0.5 3.43 0.59 5.52 0.59Z"/>
</svg>